<?xml version="1.0" standalone="no"?>
<!DOCTYPE svg PUBLIC "-//W3C//DTD SVG 20010904//EN"
 "http://www.w3.org/TR/2001/REC-SVG-20010904/DTD/svg10.dtd">
<svg version="1.0" xmlns="http://www.w3.org/2000/svg"
 width="200.000000pt" height="200.000000pt" viewBox="0 0 200.000000 200.000000"
 preserveAspectRatio="xMidYMid meet">

<g transform="translate(0.000000,200.000000) scale(0.100000,-0.100000)"
fill="#000000" stroke="none">
<path d="M565 1751 l-430 -249 0 -502 0 -501 225 -131 c124 -72 319 -184 433
-250 l208 -120 242 140 c133 76 325 187 426 246 102 58 188 106 193 106 4 0 8
227 8 504 l0 505 -202 117 c-112 64 -303 175 -424 245 -122 71 -228 131 -235
134 -8 2 -207 -107 -444 -244z m719 -136 c152 -192 272 -352 268 -356 -8 -7
-1183 -301 -1187 -297 -4 6 630 1007 637 1005 3 -1 130 -159 282 -352z m-630
-154 c-170 -269 -312 -486 -316 -483 -8 9 -178 493 -178 507 0 10 791 474 799
469 2 -2 -135 -223 -305 -493z m846 231 c184 -107 336 -195 338 -197 2 -1 -54
-53 -124 -115 -122 -107 -128 -111 -144 -93 -17 17 -434 545 -495 628 l-30 39
60 -34 c33 -18 211 -121 395 -228z m348 -897 l-3 -225 -123 334 c-68 185 -122
340 -120 346 2 6 57 58 123 115 l120 105 3 -225 c1 -124 1 -326 0 -450z
m-1528 147 c0 -13 -156 -370 -166 -381 -2 -2 -4 193 -3 435 l0 439 85 -239
c46 -132 84 -246 84 -254z m1240 284 c0 -6 -263 -770 -266 -775 -2 -2 -211
106 -464 240 -254 134 -455 246 -448 248 35 12 1145 289 1161 290 9 1 17 -1
17 -3z m156 -364 c69 -189 124 -345 122 -347 -7 -8 -513 -71 -516 -65 -1 4 54
171 123 371 148 430 134 393 140 388 2 -3 61 -159 131 -347z m-1340 6 c17 -24
153 -215 303 -426 150 -211 271 -385 269 -387 -6 -6 -788 448 -788 457 0 14
174 398 180 398 3 0 20 -19 36 -42z m544 -248 c190 -100 349 -185 353 -189 7
-7 -261 -400 -273 -400 -3 0 -84 111 -180 246 -96 136 -237 334 -313 441
l-137 193 102 -54 c57 -31 258 -137 448 -237z m889 -134 c-2 -2 -94 -55 -204
-119 -110 -63 -282 -162 -382 -220 -101 -58 -183 -104 -183 -102 0 5 248 355
260 368 6 7 325 55 504 76 5 1 7 -1 5 -3z"/>
</g>
</svg>
